Patient4_TMGait_0pt6_02_left_26_EMG.mot
version=1
nRows=23
nColumns=33
inDegrees=no
endheader
time	1LAddLong	2LGlutMax	3LGlutMed	4LIliopsoas	5LSemiMemb	6LBicFemLong	7LRecFem	8LVastMed	9LVastLat	10LGasMed	11LTibAnt	12lTibPost	13LPeroneusLong	14LSol	15LExtDigLong	16LFlexDigLong	17RAddLong	18RGlutMax	19RGlutMed	20RIliopsoas	21RSemiMemb	22RBicFemLong	23RRecFem	24RVastMed	25RVastLat	26RGasMed	27RTibAnt	28RTibPost	29RPeroneusLong	30RSol	31RExtDigLong	32RFlexDigLong
32.665	-0.007324	0.069275	-0.12299	0.009918	-0.035858	-0.091705	-0.029449	-0.000458	-0.020905	0.000458	0.015564	0.010834	0.062561	-0.099792	0.010071	-0.01236	0.01236	-0.05249	0.1503	0.090637	0.34759	-0.49103	0.29236	-0.020905	-0.80582	-0.012665	0.033875	-0.002747	-1.2119	0.058594	0.012512	-0.001221
32.666	0.001678	0.08316	-0.12054	0.006561	-0.051117	-0.17044	-0.041962	0.002899	-0.028076	0.01236	0.026703	0.006104	0.035248	-0.10361	0.046692	0.011749	0.04776	-0.032806	0.1738	-0.093079	0.4599	-0.51498	0.37582	-0.067902	-0.6691	-0.005798	-0.001373	-0.004578	-0.088501	0.03418	0.015564	0
32.667	0.00824	0.086365	-0.08194	0.025787	-0.037231	-0.10162	-0.045624	-0.003204	-0.005341	0.001526	0.018158	-0.003204	0.011749	-0.053711	0.030212	-0.033875	0.095673	-0.071411	0.24918	-0.19882	0.50308	-0.53375	0.3862	-0.24506	-0.66406	-0.002899	0.016785	-0.003967	0.27756	0.048981	0.014496	-0.001221
32.668	0.015411	0.11414	-0.077057	0.036163	-0.023804	-0.031281	-0.023346	-0.007935	0.026245	0.029297	0.030212	-0.005188	-0.025635	0.015869	0.043488	-0.0383	0.11948	-0.26398	0.068512	-0.078125	0.64392	-0.44113	0.20447	-0.18112	-0.60699	-0.010681	0.091095	0.005341	0.16922	0.013428	0.011292	-0.001984
32.669	0.017242	0.13214	-0.074005	0.013733	0.075989	-0.002747	-0.00351	-0.005035	0.020142	0.018005	0.027924	-0.014801	0.005646	0.1236	0.042114	0.18509	0.1503	-0.23453	0.062561	0.11978	0.66956	-0.44327	0.19257	-0.25955	-0.41397	-0.00351	0.052338	-0.000916	1.0609	-0.023346	0.014954	-0.003052
32.67	0.010986	0.1503	-0.078583	0.016785	0.079803	-0.037994	-0.038757	-0.011292	0.001831	0.01358	-0.00885	-0.011597	0.036621	0.16235	0.079498	-0.18692	0.084991	-0.19852	-0.021667	0.24368	0.56305	-0.40573	-0.031128	-0.15411	-0.242	-0.001831	0.047302	-0.003357	0.68451	-0.048981	0.014038	-0.001221
32.671	0.014648	0.12161	-0.070496	0.011444	0.030518	0.006714	-0.060425	-0.009766	-0.002441	0.010834	-0.000916	-0.010681	0.005646	0.056458	0.066071	0.010986	-0.093384	-0.16937	-0.026398	0.2359	0.38513	-0.22095	-0.00885	0.1059	-0.30502	0.010376	0.045166	-0.003204	-0.18997	-0.12634	0.013275	-0.001984
32.672	0.015259	0.11108	-0.019684	0.014343	0.044403	0.073547	-0.06073	-0.009155	-0.00351	-0.026398	-0.013885	-0.009613	-0.040283	0.063934	0.029297	-0.11322	-0.14069	-0.10284	-0.17593	0.095978	0.008392	-0.051727	-0.006714	0.14938	-0.24155	0.00824	-0.001221	-0.005646	-1.058	-0.17639	0.011139	0.002594
32.673	0.011902	0.099945	-0.038757	0.016022	0.050812	0.047302	-0.10544	-0.012512	0.003204	-0.052032	-0.008545	-0.006866	-0.027466	0.24353	-0.042419	-0.16708	-0.13031	-0.023346	-0.36179	0.015869	-0.13245	0.019226	0.012512	0.026703	-0.28336	0.003204	0.002441	-0.003357	-0.75928	-0.13702	0.015411	-0.002289
32.674	0.014191	0.09491	-0.019531	0.022125	-0.001068	-0.012207	-0.10101	-0.007324	0.009155	-0.028076	-0.015717	-0.000458	-0.023956	0.31525	-0.09903	-0.03952	-0.10513	0.030823	-0.32669	-0.038452	-0.12497	0.071259	0.12482	0.10513	-0.34607	-0.001678	0.018005	-0.004883	-0.021057	0.005493	0.015259	-0.011139
32.675	0.018005	0.1358	-0.00946	0.013733	-0.032501	-0.077057	-0.092621	-0.007172	-0.003967	-0.043945	0.045319	-0.005951	-0.042877	0.31387	-0.10895	0.1828	-0.091248	0.10193	-0.009613	-0.14832	0.029144	0.083313	-0.04303	0.075836	-0.28732	-0.003204	0.003357	-0.005035	-0.016327	0.11765	0.016785	-0.014343
32.676	0.01297	0.14786	-0.027008	0.010986	-0.036926	-0.067596	-0.095673	0.002899	-0.019226	-0.073547	0.043182	-0.014191	-0.040741	0.36285	-0.033722	0.14099	-0.093384	0.13748	1.0513	-0.32349	0.33768	0.10651	-0.23407	-0.018463	-0.20325	-0.002441	-0.010071	-0.00824	0.046234	0.040131	0.01709	-0.012054
32.677	0.004883	0.14175	-0.036621	0.006561	-0.020447	-0.050507	-0.078583	-0.001678	-0.021515	-0.060577	0.009766	0.005951	-0.016937	0.35721	0.00061	-0.035553	-0.034485	0.05188	0.35049	-0.23666	0.51758	0.062714	-0.32105	-0.17105	-0.15427	-0.003052	-0.0354	-0.002136	0.22095	0.010529	0.014038	-0.014648
32.678	0.006866	0.14511	-0.036316	-0.001831	0.02533	-0.011902	-0.10803	-0.003815	-0.013885	0.17334	-0.014648	0.002747	0.049133	0.27741	0.003815	-0.03418	0.015564	0.074463	0.078278	-0.14618	0.5339	0.030365	-0.37231	-0.21896	-0.086823	-0.012207	-0.030823	-0.002899	0.25085	-0.065155	0.016785	-0.01297
32.679	0.014954	0.15091	-0.019531	0.017242	-0.040436	-0.040741	-0.094299	-0.001526	-0.003052	0.30746	-0.00946	-0.006104	0.081787	0.091705	-0.00824	-0.032806	0.076294	0.10117	-0.061646	0.053253	0.44647	-0.033722	-0.3241	-0.1918	-0.036163	-0.021973	0.011139	-0.002289	0.21988	-0.03067	0.0177	-0.010071
32.68	0.009155	0.14145	-0.02243	0.008392	0.025635	-0.093994	-0.052948	-0.000458	0.006561	0.41611	0.018158	-0.002899	-0.014648	-0.099792	-0.012665	0.018768	0.13397	0.048218	-0.39185	0.11765	0.30746	-0.034485	-0.16129	-0.071716	0.001831	-0.023041	0.10727	-0.005035	0.56351	0.031281	0.013885	-0.009766
32.681	-0.001678	0.18524	0.005493	0.005493	0.021515	-0.008392	-0.04364	-0.000458	-0.017395	0.57388	0.024872	0.015564	-0.029449	-0.35202	0.000458	-0.35706	0.15396	-0.060883	-0.16373	0.14496	0.30731	0.006866	-0.020294	-0.18478	0.33508	-0.018463	0.2066	-0.00412	0.34164	0.013275	0.013275	-0.011902
32.682	-0.002594	0.12924	0.014191	-0.006714	-0.00412	0.14175	-0.042419	0.000458	-0.012817	0.47394	0.005798	0.24826	0.086975	-0.34088	0.024261	0.19913	0.14084	-0.16892	0.002136	0.18387	0.30609	0.010834	0.003052	-0.20828	0.49423	-0.009003	0.34256	-0.007019	-0.063477	-0.04425	0.013275	-0.010376
32.683	-0.00946	0.19241	0.011749	0.007172	-0.021057	0.18814	-0.050964	0.006409	-0.008698	0.09491	0.013885	-0.058594	0.076752	-0.22095	0.037689	0.22079	0.073853	-0.18875	-0.17685	0.076141	0.31647	0.045319	0.040894	0.07782	0.48523	-0.001221	0.4837	-0.004425	-0.98404	-0.092163	0.016022	-0.010529
32.684	0.002899	0.20828	0.022125	0.022888	-0.027161	0.16922	-0.060272	0.000305	-0.000458	-0.58472	0.024719	-0.084534	-0.020447	-0.23499	0.024414	-0.021973	0.005188	-0.1474	-0.18021	-0.022278	0.53024	0.010834	-0.18173	0.21881	0.44205	0.001221	0.19653	-0.002136	-0.60013	-0.15533	0.014343	-0.01236
32.685	-0.002136	0.23987	0.027466	0.019684	-0.060425	0.168	-0.062714	0.006561	-0.006256	-0.53207	0.020142	-0.042572	-0.078888	-0.24918	0.003052	0.14694	-0.00061	-0.11154	-0.21378	-0.058594	0.58258	-0.035706	-0.51773	0.25757	0.36133	0.000305	-0.095825	-0.005341	-0.069122	-0.14816	0.010834	-0.012054
32.686	-0.00412	0.23697	0.042572	0.021515	-0.12878	0.035248	-0.08728	0.002136	0.002136	-0.41122	0.024567	0.008698	0.010223	-0.046844	-0.002747	-0.31296	-0.016937	-0.080261	-0.26535	0.019531	0.54321	-0.001373	-0.41992	0.20905	0.097198	-0.005188	-0.070496	-0.00473	0.68588	-0.019073	0.013885	-0.002899
32.687	-0.000305	0.25406	0.035553	0.010681	-0.082397	-0.099792	-0.10788	-0.006561	0.012817	-0.2388	0.0177	-0.022278	0.065155	0.017853	-0.016022	-0.010071	0.028687	-0.058899	-0.35828	0.025177	0.28778	0.047455	-0.21545	0.08728	-0.12131	-0.002136	-0.22278	-0.004425	0.4068	-0.007324	0.012054	-0.027313
